<svg width="459" height="459" viewBox="0 0 459 459" fill="none" xmlns="http://www.w3.org/2000/svg">
<g clip-path="url(#clip0_0_1)">
<g clip-path="url(#clip1_0_1)">
<path d="M350.235 425.325C357.024 421.405 362.15 412.986 364.257 398.743C366.35 384.601 365.227 365.996 360.769 344.004C351.871 300.101 330.037 244.401 297.194 187.515C264.351 130.629 227.03 83.8707 193.458 54.2124C176.641 39.3563 161.09 29.0814 147.797 23.822C134.408 18.5253 124.554 18.7559 117.765 22.6753C110.976 26.5948 105.85 35.0137 103.743 49.2566C101.65 63.3988 102.773 82.0038 107.231 103.996C116.129 147.899 137.963 203.599 170.806 260.485C203.649 317.371 240.97 364.129 274.542 393.788C291.359 408.644 306.91 418.919 320.203 424.178C333.592 429.475 343.446 429.244 350.235 425.325ZM357.765 438.367C345.303 445.563 330.101 444.289 314.663 438.182C299.131 432.037 282.086 420.547 264.571 405.074C229.481 374.075 191.195 325.92 157.764 268.015C124.332 210.111 101.772 152.877 92.4708 106.987C87.8285 84.0829 86.4005 63.5764 88.8449 47.0528C91.2744 30.6296 97.7723 16.8278 110.235 9.6325C122.697 2.43723 137.899 3.71085 153.337 9.81838C168.869 15.9633 185.914 27.4532 203.429 42.9258C238.519 73.9253 276.805 122.08 310.236 179.985C343.668 237.889 366.228 295.123 375.529 341.013C380.172 363.917 381.599 384.424 379.155 400.947C376.726 417.37 370.228 431.172 357.765 438.367Z" fill="#FABC0F"/>
<path d="M434.542 188.639C430.337 164.79 406.888 143.499 365.53 131.197C324.49 118.989 270.999 117.319 216.872 126.863C162.745 136.407 113.051 156.272 78.662 181.779C44.0053 207.485 29.2528 235.512 33.4579 259.361C34.0683 262.822 31.7568 266.123 28.2955 266.734C24.8342 267.344 21.5331 265.033 20.9228 261.571C15.4565 230.571 35.0061 198.312 71.0791 171.556C107.42 144.601 159.09 124.126 214.662 114.328C270.233 104.529 325.791 106.097 369.159 118.996C412.207 131.801 441.611 155.428 447.077 186.429C447.688 189.89 445.376 193.191 441.915 193.801C438.453 194.412 435.152 192.1 434.542 188.639Z" fill="#002552"/>
<path d="M20.9228 261.571C20.3125 258.11 22.6239 254.809 26.0852 254.199C29.5465 253.588 32.8476 255.9 33.4579 259.361C37.6631 283.21 61.112 304.501 102.47 316.803C143.51 329.011 197.001 330.681 251.128 321.137C305.255 311.593 354.949 291.728 389.338 266.221C423.995 240.515 438.747 212.488 434.542 188.639C433.932 185.178 436.243 181.877 439.704 181.266C443.166 180.656 446.467 182.967 447.077 186.429C452.543 217.429 432.994 249.688 396.921 276.444C360.58 303.399 308.91 323.874 253.338 333.672C197.767 343.471 142.209 341.903 98.8415 329.004C55.7928 316.199 26.3891 292.572 20.9228 261.571Z" fill="#B90E32"/>
<path d="M344 68C357.255 68 368 57.2548 368 44C368 30.7452 357.255 20 344 20C330.745 20 320 30.7452 320 44C320 57.2548 330.745 68 344 68Z" fill="#B90E32"/>
<path d="M154 428C167.255 428 178 417.255 178 404C178 390.745 167.255 380 154 380C140.745 380 130 390.745 130 404C130 417.255 140.745 428 154 428Z" fill="#002552"/>
<path d="M39 228C52.2548 228 63 217.255 63 204C63 190.745 52.2548 180 39 180C25.7452 180 15 190.745 15 204C15 217.255 25.7452 228 39 228Z" fill="#FABC0F"/>
<path d="M429 248C442.255 248 453 237.255 453 224C453 210.745 442.255 200 429 200C415.745 200 405 210.745 405 224C405 237.255 415.745 248 429 248Z" fill="#FABC0F"/>
<mask id="mask0_0_1" style="mask-type:luminance" maskUnits="userSpaceOnUse" x="-26" y="-6" width="250" height="400">
<path d="M224 -6H-26V394H224V-6Z" fill="white"/>
</mask>
<g mask="url(#mask0_0_1)">
<path d="M350.235 425.325C357.024 421.405 362.15 412.986 364.257 398.743C366.35 384.601 365.227 365.996 360.769 344.004C351.871 300.101 330.037 244.401 297.194 187.515C264.351 130.629 227.03 83.8707 193.458 54.2124C176.641 39.3563 161.09 29.0814 147.797 23.822C134.408 18.5253 124.554 18.7559 117.765 22.6753C110.976 26.5948 105.85 35.0137 103.743 49.2566C101.65 63.3988 102.773 82.0038 107.231 103.996C116.129 147.899 137.963 203.599 170.806 260.485C203.649 317.371 240.97 364.129 274.542 393.788C291.359 408.644 306.91 418.919 320.203 424.178C333.592 429.475 343.446 429.244 350.235 425.325ZM357.765 438.367C345.303 445.563 330.101 444.289 314.663 438.182C299.131 432.037 282.086 420.547 264.571 405.074C229.481 374.075 191.195 325.92 157.764 268.015C124.332 210.111 101.772 152.877 92.4708 106.987C87.8285 84.0829 86.4005 63.5764 88.8449 47.0528C91.2744 30.6296 97.7723 16.8278 110.235 9.6325C122.697 2.43723 137.899 3.71085 153.337 9.81838C168.869 15.9633 185.914 27.4532 203.429 42.9258C238.519 73.9253 276.805 122.08 310.236 179.985C343.668 237.889 366.228 295.123 375.529 341.013C380.172 363.917 381.599 384.424 379.155 400.947C376.726 417.37 370.228 431.172 357.765 438.367Z" fill="#FABC0F"/>
</g>
<mask id="mask1_0_1" style="mask-type:luminance" maskUnits="userSpaceOnUse" x="34" y="-100" width="400" height="360">
<path d="M234 215L434 -50V-100H34V260L234 215Z" fill="white"/>
</mask>
<g mask="url(#mask1_0_1)">
<path d="M230.436 292.319C211.386 292.319 195.862 286.134 183.863 273.765C171.865 261.271 165.865 245.098 165.865 225.244C165.865 204.277 171.957 187.269 184.142 174.219C196.264 161.23 212.407 154.736 232.569 154.736C251.557 154.736 266.896 160.952 278.585 173.384C290.336 185.754 296.212 202.144 296.212 222.554C296.212 243.397 290.12 260.251 277.936 273.115C277.503 273.548 277.101 273.981 276.729 274.414C276.358 274.785 275.956 275.156 275.523 275.527L309.2 307.905H267.267L249.64 290C243.826 291.546 237.424 292.319 230.436 292.319ZM231.734 180.527C221.282 180.527 212.932 184.486 206.686 192.402C200.501 200.257 197.408 210.679 197.408 223.667C197.408 236.841 200.501 247.262 206.686 254.932C212.87 262.601 220.973 266.436 230.992 266.436C241.321 266.436 249.516 262.725 255.577 255.303C261.638 247.757 264.669 237.397 264.669 224.224C264.669 210.493 261.731 199.762 255.855 192.031C250.042 184.362 242.001 180.527 231.734 180.527Z" fill="#B90E32"/>
</g>
<mask id="mask2_0_1" style="mask-type:luminance" maskUnits="userSpaceOnUse" x="34" y="215" width="200" height="285">
<path d="M234 215L34 260V500H174L234 215Z" fill="white"/>
</mask>
<g mask="url(#mask2_0_1)">
<path d="M230.436 292.319C211.386 292.319 195.862 286.134 183.863 273.765C171.865 261.271 165.865 245.098 165.865 225.244C165.865 204.277 171.957 187.269 184.142 174.219C196.264 161.23 212.407 154.736 232.569 154.736C251.557 154.736 266.896 160.952 278.585 173.384C290.336 185.754 296.212 202.144 296.212 222.554C296.212 243.397 290.12 260.251 277.936 273.115C277.503 273.548 277.101 273.981 276.729 274.414C276.358 274.785 275.956 275.156 275.523 275.527L309.2 307.905H267.267L249.64 290C243.826 291.546 237.424 292.319 230.436 292.319ZM231.734 180.527C221.282 180.527 212.932 184.486 206.686 192.402C200.501 200.257 197.408 210.679 197.408 223.667C197.408 236.841 200.501 247.262 206.686 254.932C212.87 262.601 220.973 266.436 230.992 266.436C241.321 266.436 249.516 262.725 255.577 255.303C261.638 247.757 264.669 237.397 264.669 224.224C264.669 210.493 261.731 199.762 255.855 192.031C250.042 184.362 242.001 180.527 231.734 180.527Z" fill="#002552"/>
</g>
<mask id="mask3_0_1" style="mask-type:luminance" maskUnits="userSpaceOnUse" x="174" y="-50" width="260" height="550">
<path d="M234 215L174 500H434V-50L234 215Z" fill="white"/>
</mask>
<g mask="url(#mask3_0_1)">
<path d="M230.436 292.319C211.386 292.319 195.862 286.134 183.863 273.765C171.865 261.271 165.865 245.098 165.865 225.244C165.865 204.277 171.957 187.269 184.142 174.219C196.264 161.23 212.407 154.736 232.569 154.736C251.557 154.736 266.896 160.952 278.585 173.384C290.336 185.754 296.212 202.144 296.212 222.554C296.212 243.397 290.12 260.251 277.936 273.115C277.503 273.548 277.101 273.981 276.729 274.414C276.358 274.785 275.956 275.156 275.523 275.527L309.2 307.905H267.267L249.64 290C243.826 291.546 237.424 292.319 230.436 292.319ZM231.734 180.527C221.282 180.527 212.932 184.486 206.686 192.402C200.501 200.257 197.408 210.679 197.408 223.667C197.408 236.841 200.501 247.262 206.686 254.932C212.87 262.601 220.973 266.436 230.992 266.436C241.321 266.436 249.516 262.725 255.577 255.303C261.638 247.757 264.669 237.397 264.669 224.224C264.669 210.493 261.731 199.762 255.855 192.031C250.042 184.362 242.001 180.527 231.734 180.527Z" fill="#FABC0F"/>
</g>
</g>
</g>
<defs>
<clipPath id="clip0_0_1">
<rect width="459" height="459" fill="white"/>
</clipPath>
<clipPath id="clip1_0_1">
<rect width="1400" height="600" fill="white" transform="translate(-166 -91)"/>
</clipPath>
</defs>
</svg>
