<svg width="723" height="459" viewBox="0 0 723 459" fill="none" xmlns="http://www.w3.org/2000/svg">
<g clip-path="url(#clip0_0_1)">
<g clip-path="url(#clip1_0_1)">
<path d="M164.285 264.25C230.559 379.04 315.497 454.076 354 431.846C392.503 409.617 369.989 298.54 303.715 183.75C237.441 68.9598 152.503 -6.07556 114 16.1539C75.4974 38.3834 98.0108 149.46 164.285 264.25Z" stroke="#FABC0F" stroke-width="15.0599" stroke-linecap="round"/>
<path d="M27.1904 260.466C22.3547 233.041 39.5058 202.898 74.8708 176.667C110.236 150.436 160.918 130.267 215.767 120.595C270.616 110.924 325.14 112.543 367.344 125.096C409.547 137.65 435.974 160.109 440.81 187.534" stroke="#002552" stroke-width="12.7279" stroke-linecap="round"/>
<path d="M440.81 187.534C445.645 214.959 428.494 245.102 393.129 271.333C357.764 297.564 307.082 317.733 252.233 327.405C197.384 337.076 142.86 335.457 100.656 322.904C58.4525 310.35 32.0261 287.891 27.1904 260.466" stroke="#B90E32" stroke-width="12.7279" stroke-linecap="round"/>
<path d="M344 68C357.255 68 368 57.2548 368 44C368 30.7452 357.255 20 344 20C330.745 20 320 30.7452 320 44C320 57.2548 330.745 68 344 68Z" fill="#B90E32"/>
<path d="M154 428C167.255 428 178 417.255 178 404C178 390.745 167.255 380 154 380C140.745 380 130 390.745 130 404C130 417.255 140.745 428 154 428Z" fill="#002552"/>
<path d="M39 228C52.2548 228 63 217.255 63 204C63 190.745 52.2548 180 39 180C25.7452 180 15 190.745 15 204C15 217.255 25.7452 228 39 228Z" fill="#FABC0F"/>
<path d="M429 248C442.255 248 453 237.255 453 224C453 210.745 442.255 200 429 200C415.745 200 405 210.745 405 224C405 237.255 415.745 248 429 248Z" fill="#FABC0F"/>
<mask id="mask0_0_1" style="mask-type:luminance" maskUnits="userSpaceOnUse" x="-26" y="-6" width="250" height="400">
<path d="M224 -6H-26V394H224V-6Z" fill="white"/>
</mask>
<g mask="url(#mask0_0_1)">
<path d="M164.285 264.25C230.559 379.04 315.497 454.076 354 431.846C392.503 409.617 369.989 298.54 303.715 183.75C237.441 68.9598 152.503 -6.07556 114 16.1539C75.4974 38.3834 98.0108 149.46 164.285 264.25Z" stroke="#FABC0F" stroke-width="15.0599" stroke-linecap="round"/>
</g>
<mask id="mask1_0_1" style="mask-type:luminance" maskUnits="userSpaceOnUse" x="34" y="-100" width="400" height="360">
<path d="M234 215L434 -50V-100H34V260L234 215Z" fill="white"/>
</mask>
<g mask="url(#mask1_0_1)">
<path d="M230.436 292.319C211.386 292.319 195.862 286.134 183.863 273.765C171.865 261.271 165.865 245.098 165.865 225.244C165.865 204.277 171.957 187.269 184.142 174.219C196.264 161.23 212.407 154.736 232.569 154.736C251.557 154.736 266.896 160.952 278.585 173.384C290.336 185.754 296.212 202.144 296.212 222.554C296.212 243.397 290.12 260.251 277.936 273.115C277.503 273.548 277.101 273.981 276.729 274.414C276.358 274.785 275.956 275.156 275.523 275.527L309.2 307.905H267.267L249.64 290C243.826 291.546 237.424 292.319 230.436 292.319ZM231.734 180.527C221.282 180.527 212.932 184.486 206.686 192.402C200.501 200.257 197.408 210.679 197.408 223.667C197.408 236.841 200.501 247.262 206.686 254.932C212.87 262.601 220.973 266.436 230.992 266.436C241.321 266.436 249.516 262.725 255.577 255.303C261.638 247.757 264.669 237.397 264.669 224.224C264.669 210.493 261.731 199.762 255.855 192.031C250.042 184.362 242.001 180.527 231.734 180.527Z" fill="#B90E32"/>
</g>
<mask id="mask2_0_1" style="mask-type:luminance" maskUnits="userSpaceOnUse" x="34" y="215" width="200" height="285">
<path d="M234 215L34 260V500H174L234 215Z" fill="white"/>
</mask>
<g mask="url(#mask2_0_1)">
<path d="M230.436 292.319C211.386 292.319 195.862 286.134 183.863 273.765C171.865 261.271 165.865 245.098 165.865 225.244C165.865 204.277 171.957 187.269 184.142 174.219C196.264 161.23 212.407 154.736 232.569 154.736C251.557 154.736 266.896 160.952 278.585 173.384C290.336 185.754 296.212 202.144 296.212 222.554C296.212 243.397 290.12 260.251 277.936 273.115C277.503 273.548 277.101 273.981 276.729 274.414C276.358 274.785 275.956 275.156 275.523 275.527L309.2 307.905H267.267L249.64 290C243.826 291.546 237.424 292.319 230.436 292.319ZM231.734 180.527C221.282 180.527 212.932 184.486 206.686 192.402C200.501 200.257 197.408 210.679 197.408 223.667C197.408 236.841 200.501 247.262 206.686 254.932C212.87 262.601 220.973 266.436 230.992 266.436C241.321 266.436 249.516 262.725 255.577 255.303C261.638 247.757 264.669 237.397 264.669 224.224C264.669 210.493 261.731 199.762 255.855 192.031C250.042 184.362 242.001 180.527 231.734 180.527Z" fill="#002552"/>
</g>
<mask id="mask3_0_1" style="mask-type:luminance" maskUnits="userSpaceOnUse" x="174" y="-50" width="260" height="550">
<path d="M234 215L174 500H434V-50L234 215Z" fill="white"/>
</mask>
<g mask="url(#mask3_0_1)">
<path d="M230.436 292.319C211.386 292.319 195.862 286.134 183.863 273.765C171.865 261.271 165.865 245.098 165.865 225.244C165.865 204.277 171.957 187.269 184.142 174.219C196.264 161.23 212.407 154.736 232.569 154.736C251.557 154.736 266.896 160.952 278.585 173.384C290.336 185.754 296.212 202.144 296.212 222.554C296.212 243.397 290.12 260.251 277.936 273.115C277.503 273.548 277.101 273.981 276.729 274.414C276.358 274.785 275.956 275.156 275.523 275.527L309.2 307.905H267.267L249.64 290C243.826 291.546 237.424 292.319 230.436 292.319ZM231.734 180.527C221.282 180.527 212.932 184.486 206.686 192.402C200.501 200.257 197.408 210.679 197.408 223.667C197.408 236.841 200.501 247.262 206.686 254.932C212.87 262.601 220.973 266.436 230.992 266.436C241.321 266.436 249.516 262.725 255.577 255.303C261.638 247.757 264.669 237.397 264.669 224.224C264.669 210.493 261.731 199.762 255.855 192.031C250.042 184.362 242.001 180.527 231.734 180.527Z" fill="#FABC0F"/>
</g>
<path d="M566.295 264H545.602L508.087 206.808C505.886 203.465 504.363 200.947 503.517 199.254H503.263C503.601 202.47 503.771 207.379 503.771 213.98V264H484.41V172.975H506.5L542.618 228.39C544.269 230.886 545.792 233.362 547.188 235.816H547.442C547.104 233.701 546.935 229.532 546.935 223.312V172.975H566.295V264ZM641.705 264H587.115V172.975H639.61V189.669H607.618V209.918H637.389V226.549H607.618V247.369H641.705V264ZM720.226 189.669H694.264V264H673.697V189.669H647.862V172.975H720.226V189.669Z" fill="white"/>
</g>
</g>
<defs>
<clipPath id="clip0_0_1">
<rect width="723" height="459" fill="white"/>
</clipPath>
<clipPath id="clip1_0_1">
<rect width="1400" height="600" fill="white" transform="translate(-166 -91)"/>
</clipPath>
</defs>
</svg>
