<svg width="723" height="459" viewBox="0 0 723 459" fill="none" xmlns="http://www.w3.org/2000/svg">
<g clip-path="url(#clip0_0_1)">
<g clip-path="url(#clip1_0_1)">
<mask id="mask0_0_1" style="mask-type:luminance" maskUnits="userSpaceOnUse" x="34" y="-100" width="400" height="360">
<path d="M234 215L434 -50V-100H34V260L234 215Z" fill="white"/>
</mask>
<g mask="url(#mask0_0_1)">
<path d="M230.436 292.319C211.386 292.319 195.862 286.134 183.863 273.765C171.865 261.271 165.865 245.098 165.865 225.244C165.865 204.277 171.957 187.269 184.142 174.219C196.264 161.23 212.407 154.736 232.569 154.736C251.557 154.736 266.896 160.952 278.585 173.384C290.336 185.754 296.212 202.144 296.212 222.554C296.212 243.397 290.12 260.251 277.936 273.115C277.503 273.548 277.101 273.981 276.729 274.414C276.358 274.785 275.956 275.156 275.523 275.527L309.2 307.905H267.267L249.64 290C243.826 291.546 237.424 292.319 230.436 292.319ZM231.734 180.527C221.282 180.527 212.932 184.486 206.686 192.402C200.501 200.257 197.408 210.679 197.408 223.667C197.408 236.841 200.501 247.262 206.686 254.932C212.87 262.601 220.973 266.436 230.992 266.436C241.321 266.436 249.516 262.725 255.577 255.303C261.638 247.757 264.669 237.397 264.669 224.224C264.669 210.493 261.731 199.762 255.855 192.031C250.042 184.362 242.001 180.527 231.734 180.527Z" fill="#B90E32"/>
</g>
<mask id="mask1_0_1" style="mask-type:luminance" maskUnits="userSpaceOnUse" x="34" y="215" width="200" height="285">
<path d="M234 215L34 260V500H174L234 215Z" fill="white"/>
</mask>
<g mask="url(#mask1_0_1)">
<path d="M230.436 292.319C211.386 292.319 195.862 286.134 183.863 273.765C171.865 261.271 165.865 245.098 165.865 225.244C165.865 204.277 171.957 187.269 184.142 174.219C196.264 161.23 212.407 154.736 232.569 154.736C251.557 154.736 266.896 160.952 278.585 173.384C290.336 185.754 296.212 202.144 296.212 222.554C296.212 243.397 290.12 260.251 277.936 273.115C277.503 273.548 277.101 273.981 276.729 274.414C276.358 274.785 275.956 275.156 275.523 275.527L309.2 307.905H267.267L249.64 290C243.826 291.546 237.424 292.319 230.436 292.319ZM231.734 180.527C221.282 180.527 212.932 184.486 206.686 192.402C200.501 200.257 197.408 210.679 197.408 223.667C197.408 236.841 200.501 247.262 206.686 254.932C212.87 262.601 220.973 266.436 230.992 266.436C241.321 266.436 249.516 262.725 255.577 255.303C261.638 247.757 264.669 237.397 264.669 224.224C264.669 210.493 261.731 199.762 255.855 192.031C250.042 184.362 242.001 180.527 231.734 180.527Z" fill="#002552"/>
</g>
<mask id="mask2_0_1" style="mask-type:luminance" maskUnits="userSpaceOnUse" x="174" y="-50" width="260" height="550">
<path d="M234 215L174 500H434V-50L234 215Z" fill="white"/>
</mask>
<g mask="url(#mask2_0_1)">
<path d="M230.436 292.319C211.386 292.319 195.862 286.134 183.863 273.765C171.865 261.271 165.865 245.098 165.865 225.244C165.865 204.277 171.957 187.269 184.142 174.219C196.264 161.23 212.407 154.736 232.569 154.736C251.557 154.736 266.896 160.952 278.585 173.384C290.336 185.754 296.212 202.144 296.212 222.554C296.212 243.397 290.12 260.251 277.936 273.115C277.503 273.548 277.101 273.981 276.729 274.414C276.358 274.785 275.956 275.156 275.523 275.527L309.2 307.905H267.267L249.64 290C243.826 291.546 237.424 292.319 230.436 292.319ZM231.734 180.527C221.282 180.527 212.932 184.486 206.686 192.402C200.501 200.257 197.408 210.679 197.408 223.667C197.408 236.841 200.501 247.262 206.686 254.932C212.87 262.601 220.973 266.436 230.992 266.436C241.321 266.436 249.516 262.725 255.577 255.303C261.638 247.757 264.669 237.397 264.669 224.224C264.669 210.493 261.731 199.762 255.855 192.031C250.042 184.362 242.001 180.527 231.734 180.527Z" fill="#FABC0F"/>
</g>
<path d="M561.815 195.694H535.854V270.025H515.287V195.694H489.452V179H561.815V195.694Z" fill="#002552"/>
<path d="M483.295 270.025H428.705V179H481.2V195.694H449.208V215.943H478.979V232.574H449.208V253.395H483.295V270.025Z" fill="#002552"/>
<path d="M407.885 270.025H387.191L349.677 212.833C347.476 209.49 345.953 206.972 345.106 205.279H344.853C345.191 208.495 345.36 213.404 345.36 220.006V270.025H326V179H348.09L384.208 234.415C385.858 236.912 387.382 239.387 388.778 241.842H389.032C388.694 239.726 388.524 235.558 388.524 229.337V179H407.885V270.025Z" fill="#002552"/>
</g>
</g>
<defs>
<clipPath id="clip0_0_1">
<rect width="723" height="459" fill="white"/>
</clipPath>
<clipPath id="clip1_0_1">
<rect width="1400" height="600" fill="white" transform="translate(-166 -91)"/>
</clipPath>
</defs>
</svg>
