<svg width="1154" height="440" viewBox="0 0 1154 440" fill="none" xmlns="http://www.w3.org/2000/svg">
<path d="M150.24 260.148C216.496 374.906 301.41 449.921 339.902 427.698C378.394 405.474 355.887 294.429 289.631 179.67C223.376 64.9119 138.461 -10.1027 99.9688 12.1206C61.477 34.3439 83.9841 145.39 150.24 260.148Z" stroke="#FABC0F" stroke-width="15.0557" stroke-linecap="round"/>
<path d="M13.1831 256.365C8.34878 228.948 25.4952 198.813 60.8504 172.589C96.2055 146.366 146.873 126.202 201.707 116.533C256.542 106.864 311.05 108.483 353.242 121.033C395.434 133.583 421.853 156.036 426.688 183.453" stroke="#002552" stroke-width="12.7244" stroke-linecap="round"/>
<path d="M426.688 183.453C431.522 210.87 414.376 241.005 379.021 267.229C343.666 293.452 292.998 313.617 238.164 323.285C183.329 332.954 128.821 331.335 86.6287 318.785C44.4367 306.235 18.0176 283.782 13.1832 256.365" stroke="#B90E32" stroke-width="12.7244" stroke-linecap="round"/>
<path d="M329.905 63.9524C343.156 63.9524 353.898 53.2102 353.898 39.959C353.898 26.7079 343.156 15.9657 329.905 15.9657C316.654 15.9657 305.912 26.7079 305.912 39.959C305.912 53.2102 316.654 63.9524 329.905 63.9524Z" fill="#B90E32"/>
<path d="M139.958 423.853C153.209 423.853 163.951 413.11 163.951 399.859C163.951 386.608 153.209 375.866 139.958 375.866C126.706 375.866 115.964 386.608 115.964 399.859C115.964 413.11 126.706 423.853 139.958 423.853Z" fill="#002552"/>
<path d="M24.9896 223.908C38.2407 223.908 48.9829 213.166 48.9829 199.915C48.9829 186.664 38.2407 175.921 24.9896 175.921C11.7384 175.921 0.996216 186.664 0.996216 199.915C0.996216 213.166 11.7384 223.908 24.9896 223.908Z" fill="#FABC0F"/>
<path d="M414.882 243.903C428.133 243.903 438.875 233.16 438.875 219.909C438.875 206.658 428.133 195.916 414.882 195.916C401.63 195.916 390.888 206.658 390.888 219.909C390.888 233.16 401.63 243.903 414.882 243.903Z" fill="#FABC0F"/>
<mask id="mask0_1_2" style="mask-type:luminance" maskUnits="userSpaceOnUse" x="-40" y="-11" width="250" height="401">
<path d="M209.938 -10.0272H-39.9925V389.862H209.938V-10.0272Z" fill="white"/>
</mask>
<g mask="url(#mask0_1_2)">
<path d="M150.24 260.148C216.496 374.906 301.41 449.921 339.902 427.698C378.394 405.474 355.887 294.429 289.631 179.67C223.376 64.9119 138.461 -10.1027 99.9688 12.1206C61.477 34.3439 83.9841 145.39 150.24 260.148Z" stroke="#FABC0F" stroke-width="15.0557" stroke-linecap="round"/>
</g>
<mask id="mask1_1_2" style="mask-type:luminance" maskUnits="userSpaceOnUse" x="19" y="-108" width="401" height="360">
<path d="M219.936 206.913L419.88 -58.0139V-108H19.991V251.9L219.936 206.913Z" fill="white"/>
</mask>
<g mask="url(#mask1_1_2)">
<path d="M216.372 284.267C197.328 284.267 181.808 278.084 169.813 265.718C157.817 253.228 151.82 237.059 151.82 217.211C151.82 196.25 157.91 179.246 170.091 166.2C182.21 153.215 198.348 146.723 218.505 146.723C237.488 146.723 252.822 152.937 264.508 165.365C276.256 177.731 282.13 194.117 282.13 214.521C282.13 235.358 276.04 252.208 263.859 265.069C263.426 265.502 263.024 265.934 262.653 266.367C262.282 266.738 261.88 267.109 261.447 267.48L295.115 299.849H253.193L235.571 281.949C229.759 283.495 223.359 284.267 216.372 284.267ZM217.671 172.506C207.221 172.506 198.874 176.464 192.629 184.378C186.445 192.231 183.354 202.649 183.354 215.634C183.354 228.804 186.445 239.223 192.629 246.89C198.812 254.557 206.912 258.391 216.929 258.391C227.254 258.391 235.447 254.681 241.507 247.261C247.566 239.718 250.596 229.361 250.596 216.191C250.596 202.464 247.659 191.736 241.785 184.007C235.973 176.34 227.935 172.506 217.671 172.506Z" fill="#B90E32"/>
</g>
<mask id="mask2_1_2" style="mask-type:luminance" maskUnits="userSpaceOnUse" x="19" y="206" width="201" height="286">
<path d="M219.936 206.913L19.991 251.9V491.834H159.952L219.936 206.913Z" fill="white"/>
</mask>
<g mask="url(#mask2_1_2)">
<path d="M216.372 284.267C197.328 284.267 181.808 278.084 169.813 265.718C157.817 253.228 151.82 237.059 151.82 217.211C151.82 196.25 157.91 179.246 170.091 166.2C182.21 153.215 198.348 146.723 218.505 146.723C237.488 146.723 252.822 152.937 264.508 165.365C276.256 177.731 282.13 194.117 282.13 214.521C282.13 235.358 276.04 252.208 263.859 265.069C263.426 265.501 263.024 265.934 262.653 266.367C262.282 266.738 261.88 267.109 261.447 267.48L295.115 299.849H253.193L235.571 281.949C229.759 283.495 223.359 284.267 216.372 284.267ZM217.671 172.506C207.221 172.506 198.874 176.464 192.629 184.378C186.445 192.231 183.354 202.649 183.354 215.634C183.354 228.804 186.445 239.223 192.629 246.89C198.812 254.557 206.912 258.391 216.929 258.391C227.254 258.391 235.447 254.681 241.507 247.261C247.566 239.718 250.596 229.361 250.596 216.191C250.596 202.464 247.659 191.736 241.785 184.007C235.973 176.34 227.935 172.506 217.671 172.506Z" fill="#002552"/>
</g>
<mask id="mask3_1_2" style="mask-type:luminance" maskUnits="userSpaceOnUse" x="159" y="-59" width="261" height="551">
<path d="M219.936 206.913L159.952 491.834H419.88V-58.0139L219.936 206.913Z" fill="white"/>
</mask>
<g mask="url(#mask3_1_2)">
<path d="M216.372 284.267C197.328 284.267 181.808 278.084 169.813 265.718C157.817 253.228 151.82 237.059 151.82 217.211C151.82 196.25 157.91 179.246 170.091 166.2C182.21 153.215 198.348 146.723 218.505 146.723C237.488 146.723 252.822 152.937 264.508 165.365C276.256 177.731 282.13 194.117 282.13 214.521C282.13 235.358 276.04 252.208 263.859 265.069C263.426 265.502 263.024 265.934 262.653 266.367C262.282 266.738 261.88 267.109 261.448 267.48L295.115 299.849H253.193L235.571 281.949C229.759 283.495 223.359 284.267 216.372 284.267ZM217.671 172.506C207.221 172.506 198.874 176.464 192.629 184.378C186.445 192.231 183.354 202.649 183.354 215.634C183.354 228.804 186.445 239.223 192.629 246.89C198.812 254.557 206.912 258.391 216.929 258.391C227.254 258.391 235.447 254.681 241.507 247.261C247.566 239.718 250.596 229.361 250.596 216.191C250.596 202.464 247.659 191.736 241.785 184.007C235.973 176.34 227.935 172.506 217.671 172.506Z" fill="#FABC0F"/>
</g>
<path d="M1145.67 260.937H1125.62V164.733H1145.67V260.937Z" fill="white"/>
<path d="M1077.13 262.523C1066.3 262.523 1057.78 259.498 1051.56 253.448C1045.38 247.356 1042.3 239.107 1042.3 228.699C1042.3 217.954 1045.51 209.556 1051.94 203.506C1058.37 197.414 1067.07 194.368 1078.02 194.368C1088.81 194.368 1097.27 197.414 1103.41 203.506C1109.54 209.556 1112.61 217.573 1112.61 227.557C1112.61 238.345 1109.44 246.87 1103.09 253.131C1096.79 259.392 1088.13 262.523 1077.13 262.523ZM1077.64 209.725C1072.9 209.725 1069.22 211.354 1066.6 214.612C1063.98 217.869 1062.67 222.48 1062.67 228.446C1062.67 240.926 1067.7 247.166 1077.77 247.166C1087.37 247.166 1092.17 240.757 1092.17 227.938C1092.17 215.796 1087.33 209.725 1077.64 209.725Z" fill="white"/>
<path d="M997.684 262.523C986.854 262.523 978.329 259.498 972.11 253.448C965.933 247.356 962.845 239.107 962.845 228.699C962.845 217.954 966.06 209.556 972.491 203.506C978.921 197.414 987.615 194.368 998.573 194.368C1009.36 194.368 1017.82 197.414 1023.96 203.506C1030.09 209.556 1033.16 217.573 1033.16 227.557C1033.16 238.345 1029.98 246.87 1023.64 253.131C1017.34 259.392 1008.68 262.523 997.684 262.523ZM998.192 209.725C993.454 209.725 989.773 211.354 987.15 214.612C984.527 217.869 983.215 222.48 983.215 228.446C983.215 240.926 988.25 247.166 998.319 247.166C1007.92 247.166 1012.72 240.757 1012.72 227.938C1012.72 215.796 1007.88 209.725 998.192 209.725Z" fill="white"/>
<path d="M950.788 260.937H930.798V224.003C930.798 214.485 927.329 209.725 920.391 209.725C916.837 209.725 913.961 211.058 911.761 213.723C909.561 216.388 908.461 219.773 908.461 223.877V260.937H888.408V164.733H908.461V205.6H908.715C913.622 198.112 920.285 194.368 928.704 194.368C943.427 194.368 950.788 203.252 950.788 221.021V260.937Z" fill="white"/>
<path d="M875.208 258.589C870.682 261.212 864.145 262.523 855.599 262.523C845.615 262.523 837.535 259.498 831.358 253.448C825.181 247.399 822.093 239.593 822.093 230.032C822.093 218.99 825.393 210.296 831.993 203.95C838.635 197.562 847.498 194.368 858.582 194.368C866.239 194.368 871.781 195.383 875.208 197.414V214.421C871.02 211.291 866.345 209.725 861.184 209.725C855.43 209.725 850.861 211.417 847.477 214.802C844.135 218.144 842.463 222.777 842.463 228.699C842.463 234.453 844.071 238.98 847.286 242.28C850.502 245.537 854.923 247.166 860.549 247.166C865.541 247.166 870.428 245.601 875.208 242.47V258.589Z" fill="white"/>
<path d="M750.892 257.446V237.139C754.573 240.228 758.571 242.555 762.886 244.12C767.201 245.643 771.559 246.404 775.958 246.404C778.539 246.404 780.781 246.172 782.685 245.706C784.631 245.241 786.239 244.606 787.508 243.803C788.819 242.957 789.792 241.984 790.427 240.884C791.062 239.741 791.379 238.514 791.379 237.203C791.379 235.426 790.871 233.84 789.856 232.444C788.841 231.047 787.444 229.757 785.668 228.573C783.933 227.388 781.86 226.246 779.449 225.146C777.037 224.046 774.435 222.925 771.643 221.782C764.536 218.821 759.226 215.204 755.715 210.931C752.246 206.658 750.511 201.497 750.511 195.447C750.511 190.709 751.463 186.647 753.367 183.263C755.271 179.836 757.851 177.023 761.109 174.823C764.409 172.623 768.216 171.015 772.532 170C776.847 168.942 781.416 168.413 786.239 168.413C790.977 168.413 795.165 168.71 798.804 169.302C802.484 169.852 805.869 170.719 808.957 171.904V190.878C807.434 189.82 805.763 188.889 803.944 188.086C802.167 187.282 800.327 186.626 798.423 186.118C796.519 185.568 794.615 185.167 792.712 184.913C790.85 184.659 789.073 184.532 787.381 184.532C785.054 184.532 782.939 184.765 781.035 185.23C779.131 185.653 777.524 186.267 776.212 187.07C774.901 187.874 773.885 188.847 773.166 189.989C772.447 191.089 772.087 192.337 772.087 193.734C772.087 195.257 772.489 196.631 773.293 197.858C774.097 199.043 775.239 200.185 776.72 201.285C778.201 202.343 779.999 203.4 782.114 204.458C784.229 205.473 786.62 206.531 789.285 207.631C792.923 209.154 796.181 210.783 799.057 212.517C801.977 214.21 804.473 216.135 806.546 218.292C808.619 220.45 810.205 222.925 811.305 225.717C812.405 228.467 812.955 231.682 812.955 235.363C812.955 240.439 811.982 244.712 810.036 248.181C808.132 251.608 805.53 254.4 802.23 256.558C798.931 258.673 795.081 260.196 790.681 261.127C786.323 262.058 781.712 262.523 776.847 262.523C771.855 262.523 767.095 262.1 762.569 261.254C758.084 260.408 754.192 259.139 750.892 257.446Z" fill="white"/>
<path d="M707.169 186.626H681.214V260.937H660.653V186.626H634.826V169.936H707.169V186.626Z" fill="white"/>
<path d="M627.528 260.937H572.953V169.936H625.434V186.626H593.45V206.87H623.213V223.496H593.45V244.31H627.528V260.937Z" fill="white"/>
<path d="M552.139 260.937H531.451L493.947 203.76C491.747 200.418 490.224 197.901 489.378 196.208H489.124C489.462 199.424 489.631 204.331 489.631 210.931V260.937H470.276V169.936H492.36L528.468 225.336C530.118 227.832 531.641 230.307 533.037 232.761H533.291C532.953 230.646 532.784 226.478 532.784 220.259V169.936H552.139V260.937Z" fill="white"/>
</svg>
